<svg version="1.1" viewBox="0.0 0.0 206.56692913385828 182.13385826771653" fill="none" stroke="none" stroke-linecap="square" stroke-miterlimit="10" xmlns:xlink="http://www.w3.org/1999/xlink" xmlns="http://www.w3.org/2000/svg"><clipPath id="p.0"><path d="m0 0l206.56693 0l0 182.13387l-206.56693 0l0 -182.13387z" clip-rule="nonzero"/></clipPath><g clip-path="url(#p.0)"><path fill="#000000" fill-opacity="0.0" d="m0 0l206.56693 0l0 182.13387l-206.56693 0z" fill-rule="evenodd"/><path fill="#ffffff" d="m61.141533 47.352547l0 37.020447l-28.813084 0l28.813084 -37.020447zm0 -27.183256l-49.709846 64.203705l0 16.618454l49.709846 0l0 44.3547l16.618454 0l0 -44.3547l9.109596 0l-3.929062 -16.618454l-5.1805344 0l0 -64.203705z" fill-rule="evenodd"/><path fill="#ffffff" d="m148.93188 84.37299c1.7850494 0 3.2984772 0.63059235 4.5402374 1.8917694c1.2611847 1.2417755 1.8917694 2.7551956 1.8917694 4.540245l0 31.461563c0 1.804451 -0.6305847 3.337265 -1.8917694 4.5984497c-1.2417603 1.2417755 -2.755188 1.8626556 -4.5402374 1.8626556l-20.372894 0c-1.804451 0 -3.337265 -0.6208801 -4.598442 -1.8626556c-1.2417831 -1.2611847 -1.8626709 -2.7939987 -1.8626709 -4.5984497l0 -31.461563c0 -1.7850494 0.62088776 -3.2984695 1.8626709 -4.540245c1.2611771 -1.2611771 2.793991 -1.8917694 4.598442 -1.8917694zm-30.58844 -64.203705c-3.5701065 0 -6.606636 1.2514782 -9.109589 3.7544327c-2.5029526 2.5029545 -3.7544327 5.5491867 -3.7544327 9.138697l0 99.41969c0 3.5700989 1.2514801 6.6066284 3.7544327 9.109589c2.5029526 2.5029602 5.539482 3.7544403 9.109589 3.7544403l40.774887 0c3.4536896 0 6.4611206 -1.2514801 9.022278 -3.7544403c2.5611572 -2.5029602 3.841751 -5.5394897 3.841751 -9.109589l0 -51.863556c0 -3.5701065 -1.2805939 -6.606636 -3.841751 -9.109589c-2.5611572 -2.5029602 -5.5685883 -3.7544327 -9.022278 -3.7544327l-37.020454 0l0 -24.505676c0 -1.7850494 0.62088776 -3.2984657 1.8626709 -4.540245c1.2611771 -1.2611732 2.793991 -1.8917656 4.598442 -1.8917656l20.372894 0c1.7850494 0 3.2984772 0.63059235 4.5402374 1.8917656c1.2611847 1.2417793 1.8917694 2.7551956 1.8917694 4.540245l0 13.213272l16.61847 -3.9290543l0 -19.470661c0 -3.58951 -1.2805939 -6.635742 -3.841751 -9.138697c-2.5611572 -2.5029545 -5.5685883 -3.7544327 -9.022278 -3.7544327z" fill-rule="evenodd"/></g></svg>